DBRep_DrawableShape

CASCADE Topology V1, (c) Matra-Datavision
Locations 2
1
              1               0               0               0 
              0 0.998026728428272 -0.0627905195293134               0 
              0 0.0627905195293134 0.998026728428272               0 
2  1 -1 0
Curve2ds 14
1 0 0 0 1 
1 0.062831853071795868 0 0 1 
7 0 0  3 150 148  1.4215603454712449 0.36392418991263076  1.3936700384927523 0.36378870596192348  1.3708122565918854 0.36348460197080162  1.3503945167992994 0.36307222559212415  1.3304377175087887 0.36254273081220262  1.3102984506978284 0.36186540517382648  1.2899613366640739 0.36105874556078665  1.2694211034517782 0.36011433417037081  1.2486716192210006 0.3590167862943861  1.2277062665067628 0.35778335035890801  1.2065181458390373 0.35639369089441902  1.1851000605588298 0.35485333985189543  1.1634445006425378 0.35316151930272072  1.1415424642100658 0.35130195256904395  1.1193862665864618 0.34929039903983461  1.0969671098365241 0.34709841644928174  1.0742741538884757 0.34474855147287303  1.0512983016207516 0.34220952472057686  1.0280286315139318 0.33950156081655247  1.0044526464070191 0.33659949711212778  0.98055853640813284 0.33351181111797268  0.95633324204890391 0.33022898390039163  0.93176217587467036 0.3267382404175071  0.90682994589528843 0.32304640928902156  0.8815211988647067 0.31913509888485841  0.85581705427965993 0.31499901694442123  0.82969970025940309 0.3106371480707445  0.80314737167698746 0.30603943082811375  0.77613794435107986 0.30118582215960965  0.74864703761676976 0.29607600176571819  0.7206474536881915 0.29069931872373533  0.69211139444593517 0.28504359970300974  0.66300472513030417 0.27909511201392073  0.63329331764318342 0.27283976813242633  0.60293739019926118 0.26626193109593921  0.57189359347207347 0.25934477153788382  0.54011100216712427 0.25206929584091287  0.50753638073440577 0.2444154513494799  0.47410644983257688 0.23636026149406847  0.43975100473822515 0.22787345938617393  0.40438642036745986 0.21892260065909652  0.36792058761576851 0.20948143757657822  0.33024184331515527 0.19949785930096448  0.29122195076622615 0.18893584454587348  0.25070663746455457 0.1777255851018783  0.20850831000821191 0.16580874813571794  0.16439746541070765 0.15309981471567552  0.11809094408633114 0.13949580072950313  0.069219913840097513 0.12486600893163058  0.017307553953875399 0.10904069976286782  -0.038296597406993316 0.091788855299739736  -0.0985161708000859 0.072788156051559194  -0.16473452810125488 0.051556868491317825  -0.23920647650766469 0.027316541175635367  -0.32610492763110832 -0.001365047126383051  -0.4350717600337044 -0.03777237976429948  -0.50998055431594391 -0.062980023692282464  -0.51834221025414973 -0.065799285525619838  -0.52354662108292294 -0.067554087167176091  -0.52762371110782702 -0.068929314555218765  -0.53099224581557136 -0.070065541903490611  -0.53396581016070388 -0.07106854333405864  -0.53666326087817051 -0.071978409950173586  -0.53917469108745597 -0.072825626440871649  -0.54159205760991114 -0.073641266170320421  -0.54393701637900405 -0.074432474916790892  -0.54621782764159299 -0.075202039756818689  -0.54844154123799083 -0.075952339365624122  -0.55058496167526494 -0.076675547389444043  -0.55269639379932123 -0.077387962288226364  -0.55478600707573467 -0.078093109412205403  -0.5568677798095365 -0.078795650048580551  -0.55894260251493089 -0.079495845242871205  -0.56101224324645482 -0.080194291664511752  -0.56307519984047616 -0.080890482374883499  -0.56513044744686658 -0.081584071515454631  -0.5671807681486738 -0.082275997962195133  -0.56922533611569981 -0.08287154348656664  -0.57126193536348668 -0.083328754472044783  -0.57329391791494544 -0.083784929021768526  -0.57532084583491128 -0.084239968820485844  -0.57733956481282278 -0.084693165734064851  -0.57935385953257912 -0.085145369413735281  -0.5813634491900368 -0.085596516819731516  -0.58336489618520515 -0.086045836220216235  -0.5853622199190931 -0.086054158828641258  -0.58735509406077213 -0.086039348524358628  -0.58934018067695648 -0.086024596094088107  -0.59132131789685216 -0.086009873014271557  -0.5932979164140324 -0.085995183664416608  -0.59526711389592402 -0.085980549316321334  -0.59723605364780097 -0.085965916883580309  -0.5992055745400422 -0.085945503244160892  -0.60119380860173521 -0.085913466372496888  -0.6031927854514425 -0.085881256399824538  -0.60520577609928639 -0.085848820619607136  -0.607238317846301 -0.08581606980804253  -0.6092828448356844 -0.085783125875517452  -0.61134126740889583 -0.085749958040261615  -0.61344882964980352 -0.085715998406264426  -0.61562918186644433 -0.085663933369682185  -0.6179024531739552 -0.085608187965103416  -0.62030230234461881 -0.085549338604490516  -0.62286528049671341 -0.085486488977372543  -0.62559659133690326 -0.085419511477892535  -0.62855396856617762 -0.085346990353997967  -0.63186227068135237 -0.085240061126590994  -0.63573091805949744 -0.085113717810660711  -0.64070207075786634 -0.084951368582489681  -0.64757698388034779 -0.084696880667195815  -0.65761286227738891 -0.084290209773437277  -0.67106656242316554 -0.08365224717360692  -0.68495478317489367 -0.082903277083299809  -0.69931788229606973 -0.082034378739256869  -0.71421092231448702 -0.081035230813875786  -0.72969782073068323 -0.079894186696808644  -0.74585320461456694 -0.078597996926076552  -0.76277482457361634 -0.077130573103857153  -0.78058082160667475 -0.07546664503099898  -0.79942823960613252 -0.073575159850393285  -0.81952248012766482 -0.071433934551172543  -0.8411524832049242 -0.068994095733052457  -0.86473208661601708 -0.066173288894816648  -0.89090730769461146 -0.062880551116501496  -0.92079677516323599 -0.058933710957432328  -0.9566491516152964 -0.053979943351978033  -1.0047481521267896 -0.047048947282594469  -1.0937895679286598 -0.033774250126632627  -1.1661132604675997 -0.023062229460933864  -1.2091550806986371 -0.01691964495913699  -1.2427937681143328 -0.01231490596645432  -1.2713743013762477 -0.0085780458404604576  -1.296662105204677 -0.0054272452227758783  -1.3195842994169862 -0.0027132530981550107  -1.340703316222009 -0.00035047868903517743  -1.360385494788261 0.0017239458013725562  -1.3788920057518679 0.0035602426935513742  -1.3964106103770502 0.0051871562052740183  -1.4130862769084267 0.0066244635605927638  -1.4290247624676224 0.0078899644663626978  -1.4443200184217364 0.0090056020854698826  -1.4590441794188882 0.0099841426864626381  -1.4732572968087898 0.010836705331266044  -1.4870041352091161 0.011565581788657686  -1.5003358574573022 0.012180959627549198  -1.5134612908515757 0.012699765726624151  -1.5268022325056174 0.013136881999482264  -1.541005047223897 0.013498531529674923  -1.5574920814076214 0.013778890407895733  -1.5784396545287551 0.013924189912630752 
 0 4 1 1 2 1 3 1 4 1 5 1 6 1 7 1 8 1 9 1 10 1 11 1 12 1 13 1 14 1 15 1 16 1 17 1 18 1 19 1 20 1 21 1 22 1 23 1 24 1 25 1 26 1 27 1 28 1 29 1 30 1 31 1 32 1 33 1 34 1 35 1 36 1 37 1 38 1 39 1 40 1 41 1 42 1 43 1 44 1 45 1 46 1 47 1 48 1 49 1 50 1 51 1 52 1 53 1 54 1 55 1 56 1 57 1 58 1 59 1 60 1 61 1 62 1 63 1 64 1 65 1 66 1 67 1 68 1 69 1 70 1 71 1 72 1 73 1 74 1 75 1 76 1 77 1 78 1 79 1 80 1 81 1 82 1 83 1 84 1 85 1 86 1 87 1 88 1 89 1 90 1 91 1 92 1 93 1 94 1 95 1 96 1 97 1 98 1 99 1 100 1 101 1 102 1 103 1 104 1 105 1 106 1 107 1 108 1 109 1 110 1 111 1 112 1 113 1 114 1 115 1 116 1 117 1 118 1 119 1 120 1 121 1 122 1 123 1 124 1 125 1 126 1 127 1 128 1 129 1 130 1 131 1 132 1 133 1 134 1 135 1 136 1 137 1 138 1 139 1 140 1 141 1 142 1 143 1 144 1 145 1 146 1 147 4
1 0.14999999999999999 0 -1 0 
7 0 0  3 150 148  -1.5784396545287551 -0.13607581008736924  -1.5612882749612678 -0.13607581008736924  -1.5411338923907774 -0.13607581008736924  -1.520979509820287 -0.13607581008736924  -1.5008251272497963 -0.13607581008736924  -1.4806707446793059 -0.13607581008736924  -1.4605163621088155 -0.13607581008736924  -1.4403619795383251 -0.13607581008736924  -1.4202075969678345 -0.13607581008736924  -1.4000532143973441 -0.13607581008736924  -1.3798988318268537 -0.13607581008736924  -1.3597444492563633 -0.13607581008736924  -1.3395900666858727 -0.13607581008736924  -1.3194356841153823 -0.13607581008736924  -1.2992813015448919 -0.13607581008736924  -1.2791269189744015 -0.13607581008736924  -1.258972536403911 -0.13607581008736924  -1.2388181538334204 -0.13607581008736924  -1.21866377126293 -0.13607581008736924  -1.1985093886924396 -0.13607581008736924  -1.178355006121949 -0.13607581008736924  -1.1582006235514586 -0.13607581008736924  -1.1380462409809682 -0.13607581008736924  -1.1178918584104776 -0.13607581008736924  -1.0977374758399872 -0.13607581008736924  -1.0775830932694968 -0.13607581008736924  -1.0574287106990063 -0.13607581008736924  -1.0372743281285159 -0.13607581008736924  -1.0171199455580253 -0.13607581008736924  -0.99696556298753491 -0.13607581008736924  -0.97681118041704451 -0.13607581008736924  -0.95665679784655411 -0.13607581008736924  -0.93650241527606348 -0.13607581008736924  -0.91634803270557319 -0.13607581008736924  -0.89619365013508268 -0.13607581008736924  -0.87603926756459216 -0.13607581008736924  -0.85588488499410176 -0.13607581008736924  -0.83573050242361124 -0.13607581008736924  -0.81557611985312084 -0.13607581008736924  -0.79542173728263033 -0.13607581008736924  -0.77526735471213981 -0.13607581008736924  -0.75511297214164941 -0.13607581008736924  -0.73495858957115912 -0.13607581008736924  -0.71480420700066849 -0.13607581008736924  -0.69464982443017798 -0.13607581008736924  -0.67449544185968757 -0.13607581008736924  -0.65434105928919717 -0.13607581008736924  -0.63418667671870665 -0.13607581008736924  -0.61403229414821636 -0.13607581008736924  -0.59387791157772574 -0.13607581008736924  -0.57372352900723533 -0.13607581008736924  -0.55356914643674471 -0.13607581008736924  -0.53341476386625475 -0.13607581008736924  -0.51326038129576501 -0.13607581008736924  -0.49310599872527527 -0.13607581008736924  -0.47295161615478554 -0.13607581008736924  -0.4527972335842958 -0.13607581008736924  -0.43264285101380628 -0.13607581008736924  -0.41248846844331655 -0.13607581008736924  -0.39233408587282703 -0.13607581008736924  -0.37217970330233729 -0.13607581008736924  -0.35202532073184756 -0.13607581008736924  -0.33187093816135782 -0.13607581008736924  -0.31171655559086831 -0.13607581008736924  -0.29156217302037857 -0.13607581008736924  -0.27140779044988861 -0.13607581008736924  -0.25125340787939909 -0.13607581008736924  -0.23109902530890958 -0.13607581008736924  -0.21094464273841962 -0.13607581008736924  -0.19079026016792988 -0.13607581008736924  -0.17063587759744037 -0.13607581008736924  -0.15048149502695085 -0.13607581008736924  -0.13032711245646089 -0.13607581008736924  -0.11017272988597115 -0.13607581008736924  -0.090018347315481639 -0.13607581008736924  -0.069863964744992124 -0.13607581008736924  -0.049709582174502165 -0.13607581008736924  -0.029555199604012206 -0.13607581008736924  -0.0094008170335229124 -0.13607581008736924  0.010753565536966825 -0.13607581008736924  0.030907948107456562 -0.13607581008736924  0.051062330677946299 -0.13607581008736924  0.071216713248436037 -0.13607581008736924  0.091371095818925552 -0.13607581008736924  0.11152547838941507 -0.13607581008736924  0.13167986095990525 -0.13607581008736924  0.15183424353039454 -0.13607581008736924  0.17198862610088406 -0.13607581008736924  0.19214300867137446 -0.13607581008736924  0.21229739124186375 -0.13607581008736924  0.23245177381235327 -0.13607581008736924  0.25260615638284278 -0.13607581008736924  0.27276053895333296 -0.13607581008736924  0.29291492152382248 -0.13607581008736924  0.313069304094312 -0.13607581008736924  0.33322368666480129 -0.13607581008736924  0.35337806923529169 -0.13607581008736924  0.37353245180578099 -0.13607581008736924  0.3936868343762705 -0.13607581008736924  0.41384121694676068 -0.13607581008736924  0.43399559951725042 -0.13607581008736924  0.45414998208774016 -0.13607581008736924  0.47430436465822989 -0.13607581008736924  0.49445874722871919 -0.13607581008736924  0.51461312979920937 -0.13607581008736924  0.53476751236969866 -0.13607581008736924  0.5549218949401884 -0.13607581008736924  0.57507627751067769 -0.13607581008736924  0.59523066008116743 -0.13607581008736924  0.61538504265165717 -0.13607581008736924  0.6355394252221469 -0.13607581008736924  0.65569380779263664 -0.13607581008736924  0.67584819036312682 -0.13607581008736924  0.69600257293361611 -0.13607581008736924  0.71615695550410585 -0.13607581008736924  0.73631133807459559 -0.13607581008736924  0.75646572064508533 -0.13607581008736924  0.77662010321557506 -0.13607581008736924  0.79677448578606436 -0.13607581008736924  0.81692886835655409 -0.13607581008736924  0.83708325092704428 -0.13607581008736924  0.85723763349753357 -0.13607581008736924  0.87739201606802286 -0.13607581008736924  0.89754639863851304 -0.13607581008736924  0.91770078120900278 -0.13607581008736924  0.93785516377949252 -0.13607581008736924  0.95800954634998226 -0.13607581008736924  0.97816392892047155 -0.13607581008736924  0.99831831149096129 -0.13607581008736924  1.018472694061451 -0.13607581008736924  1.0386270766319408 -0.13607581008736924  1.0587814592024305 -0.13607581008736924  1.0789358417729202 -0.13607581008736924  1.0990902243434095 -0.13607581008736924  1.1192446069138997 -0.13607581008736924  1.139398989484389 -0.13607581008736924  1.1595533720548792 -0.13607581008736924  1.1797077546253689 -0.13607581008736924  1.1998621371958582 -0.13607581008736924  1.2200165197663475 -0.13607581008736924  1.2401709023368381 -0.13607581008736924  1.260325284907327 -0.13607581008736924  1.2804796674778167 -0.13607581008736924  1.3006340500483065 -0.13607581008736924  1.3207884326187962 -0.13607581008736924  1.3409428151892859 -0.13607581008736924  1.3610971977597761 -0.13607581008736924  1.3812515803302654 -0.13607581008736924  1.4014059629007556 -0.13607581008736924  1.4215603454712449 -0.13607581008736924 
 0 4 1 1 2 1 3 1 4 1 5 1 6 1 7 1 8 1 9 1 10 1 11 1 12 1 13 1 14 1 15 1 16 1 17 1 18 1 19 1 20 1 21 1 22 1 23 1 24 1 25 1 26 1 27 1 28 1 29 1 30 1 31 1 32 1 33 1 34 1 35 1 36 1 37 1 38 1 39 1 40 1 41 1 42 1 43 1 44 1 45 1 46 1 47 1 48 1 49 1 50 1 51 1 52 1 53 1 54 1 55 1 56 1 57 1 58 1 59 1 60 1 61 1 62 1 63 1 64 1 65 1 66 1 67 1 68 1 69 1 70 1 71 1 72 1 73 1 74 1 75 1 76 1 77 1 78 1 79 1 80 1 81 1 82 1 83 1 84 1 85 1 86 1 87 1 88 1 89 1 90 1 91 1 92 1 93 1 94 1 95 1 96 1 97 1 98 1 99 1 100 1 101 1 102 1 103 1 104 1 105 1 106 1 107 1 108 1 109 1 110 1 111 1 112 1 113 1 114 1 115 1 116 1 117 1 118 1 119 1 120 1 121 1 122 1 123 1 124 1 125 1 126 1 127 1 128 1 129 1 130 1 131 1 132 1 133 1 134 1 135 1 136 1 137 1 138 1 139 1 140 1 141 1 142 1 143 1 144 1 145 1 146 1 147 4
1 0 0 -1 0 
1 0 0 1 0 
2 0 0 -1 0 0 1 0.5
1 0 147 1 0 
2 0 0 1 0 -0 1 0.14999999999999999
1 0.14970400926424074 0.0094185779293970064 -0.99802672842827156 -0.062790519529313374 
1 -1.5784396545287551 0.013924189912630752 0 -1 
1 0 0 -0.99802672842827156 0.062790519529313374 
1 1.4215603454712449 -0.13607581008736924 0 1 
Curves 8
7 0 0  3 150 148  3 0.5 0  2.9721096930215074 0.49986451604929272 0  2.9492519111206406 0.49956041205817087 0  2.9288341713280546 0.4991480356794934 0  2.9088773720375438 0.49861854089957186 0  2.8887381052265835 0.49794121526119572 0  2.868400991192829 0.4971345556481559 0  2.8478607579805333 0.49619014425774005 0  2.8271112737497557 0.49509259638175535 0  2.806145921035518 0.49385916044627726 0  2.7849578003677924 0.49246950098178827 0  2.7635397150875849 0.49092914993926468 0  2.7418841551712929 0.48923732939008996 0  2.7199821187388209 0.48737776265641319 0  2.6978259211152169 0.48536620912720385 0  2.6754067643652792 0.48317422653665099 0  2.6527138084172308 0.48082436156024227 0  2.6297379561495067 0.47828533480794611 0  2.6064682860426869 0.47557737090392171 0  2.5828923009357743 0.47267530719949702 0  2.558998190936888 0.46958762120534192 0  2.534772896577659 0.46630479398776087 0  2.5102018304034255 0.46281405050487634 0  2.4852696004240435 0.45912221937639081 0  2.4599608533934618 0.45521090897222766 0  2.434256708808415 0.45107482703179047 0  2.4081393547881582 0.44671295815811374 0  2.3815870262057426 0.44211524091548299 0  2.354577598879835 0.43726163224697889 0  2.3270866921455249 0.43215181185308743 0  2.2990871082169466 0.42677512881110458 0  2.2705510489746903 0.42111940979037898 0  2.2414443796590593 0.41517092210128997 0  2.2117329721719385 0.40891557821979557 0  2.1813770447280163 0.40233774118330845 0  2.1503332480008286 0.39542058162525306 0  2.1185506566958794 0.38814510592828211 0  2.0859760352631609 0.38049126143684914 0  2.052546104361332 0.37243607158143771 0  2.0181906592669803 0.36394926947354317 0  1.982826074896215 0.35499841074646576 0  1.9463602421445236 0.34555724766394746 0  1.9086814978439104 0.33557366938833372 0  1.8696616052949813 0.32501165463324272 0  1.8291462919933097 0.31380139518924755 0  1.786947964536967 0.30188455822308718 0  1.7428371199394628 0.28917562480304476 0  1.6965305986150863 0.27557161081687237 0  1.6476595683688526 0.26094181901899982 0  1.5957472084826305 0.24511650985023706 0  1.5401430571217618 0.22786466538710898 0  1.4799234837286692 0.20886396613892844 0  1.4137051264275002 0.18763267857868707 0  1.3392331780210904 0.16339235126300461 0  1.2523347268976468 0.13471076296098619 0  1.1433678944950507 0.098303430323069763 0  1.0684591002128112 0.073095786395086779 0  1.0600974442746054 0.070276524561749404 0  1.0548930334458322 0.068521722920193151 0  1.0508159434209281 0.067146495532150477 0  1.0474474087131838 0.066010268183878631 0  1.0444738443680512 0.065007266753310602 0  1.0417763936505846 0.064097400137195656 0  1.0392649634412991 0.063250183646497593 0  1.036847596918844 0.062434543917048821 0  1.0345026381497511 0.061643335170578344 0  1.0322218268871621 0.060873770330550553 0  1.0299981132907643 0.060123470721745113 0  1.0278546928534902 0.059400262697925206 0  1.0257432607294339 0.058687847799142871 0  1.0236536474530205 0.057982700675163833 0  1.0215718747192186 0.057280160038788691 0  1.0194970520138242 0.056579964844498037 0  1.0174274112823003 0.05588151842285749 0  1.015364454688279 0.055185327712485736 0  1.0133092070818885 0.054491738571914618 0  1.0112588863800813 0.05379981212517411 0  1.0092143184130553 0.053204266600802609 0  1.0071777191652684 0.052747055615324459 0  1.0051457366138097 0.052290881065600717 0  1.0031188086938438 0.051835841266883405 0  1.0011000897159323 0.051382644353304384 0  0.999085794996176 0.050930440673633962 0  0.99707620533871832 0.050479293267637719 0  0.99507475834354997 0.050029973867153008 0  0.99307743460966202 0.050021651258727991 0  0.99108456046798299 0.050036461563010615 0  0.98909947385179864 0.050051213993281135 0  0.98711833663190296 0.050065937073097685 0  0.98514173811472272 0.050080626422952641 0  0.9831725406328311 0.050095260771047909 0  0.98120360088095415 0.050109893203788933 0  0.97923407998871292 0.050130306843208343 0  0.97724584592701991 0.050162343714872347 0  0.97524686907731262 0.050194553687544705 0  0.97323387842946874 0.050226989467762106 0  0.97120133668245412 0.050259740279326712 0  0.96915680969307072 0.05029268421185179 0  0.96709838711985929 0.050325852047107621 0  0.9649908248789516 0.050359811681104823 0  0.96281047266231079 0.050411876717687057 0  0.96053720135479992 0.050467622122265819 0  0.95813735218413632 0.05052647148287872 0  0.95557437403204171 0.050589321109996699 0  0.95284306319185186 0.050656298609476715 0  0.9498856859625775 0.050728819733371275 0  0.94657738384740275 0.050835748960778256 0  0.94270873646925768 0.050962092276708539 0  0.93773758377088878 0.051124441504879561 0  0.93086267064840733 0.051378929420173428 0  0.92082679225136621 0.051785600313931965 0  0.90737309210558958 0.052423562913762323 0  0.89348487135386145 0.053172533004069426 0  0.87912177223268539 0.05404143134811238 0  0.8642287322142681 0.055040579273493456 0  0.84874183379807189 0.056181623390560598 0  0.83258644991418818 0.05747781316129269 0  0.81566482995513878 0.058945236983512089 0  0.79785883292208037 0.060609165056370262 0  0.7790114149226226 0.062500650236975958 0  0.7589171744010903 0.0646418755361967 0  0.73728717132383093 0.067081714354316785 0  0.71370756791273804 0.069902521192552594 0  0.68753234683414366 0.073195258970867746 0  0.65764287936551913 0.077142099129936914 0  0.62179050291345872 0.08209586673539121 0  0.57369150240196554 0.089026862804774773 0  0.48465008660009534 0.10230155996073662 0  0.41232639406115545 0.11301358062643538 0  0.36928457383011803 0.11915616512823225 0  0.33564588641442228 0.12376090412091492 0  0.30706535315250738 0.12749776424690878 0  0.28177754932407817 0.13064856486459336 0  0.25885535511176894 0.13336255698921423 0  0.23773633830674612 0.13572533139833406 0  0.21805415974049414 0.1377997558887418 0  0.19954764877688724 0.13963605278092062 0  0.18202904415170496 0.14126296629264326 0  0.16535337762032842 0.14270027364796201 0  0.14941489206113268 0.14396577455373194 0  0.13411963610701871 0.14508141217283912 0  0.11939547510986692 0.14605995277383188 0  0.10518235771996531 0.14691251541863529 0  0.091435519319639003 0.14764139187602693 0  0.078103797071452874 0.14825676971491844 0  0.064978363677179463 0.14877557581399339 0  0.051637422023137702 0.14921269208685151 0  0.037434607304858147 0.14957434161704417 0  0.020947573121133711 0.14985470049526498 0  0 0.14999999999999999 0 
 0 4 1 1 2 1 3 1 4 1 5 1 6 1 7 1 8 1 9 1 10 1 11 1 12 1 13 1 14 1 15 1 16 1 17 1 18 1 19 1 20 1 21 1 22 1 23 1 24 1 25 1 26 1 27 1 28 1 29 1 30 1 31 1 32 1 33 1 34 1 35 1 36 1 37 1 38 1 39 1 40 1 41 1 42 1 43 1 44 1 45 1 46 1 47 1 48 1 49 1 50 1 51 1 52 1 53 1 54 1 55 1 56 1 57 1 58 1 59 1 60 1 61 1 62 1 63 1 64 1 65 1 66 1 67 1 68 1 69 1 70 1 71 1 72 1 73 1 74 1 75 1 76 1 77 1 78 1 79 1 80 1 81 1 82 1 83 1 84 1 85 1 86 1 87 1 88 1 89 1 90 1 91 1 92 1 93 1 94 1 95 1 96 1 97 1 98 1 99 1 100 1 101 1 102 1 103 1 104 1 105 1 106 1 107 1 108 1 109 1 110 1 111 1 112 1 113 1 114 1 115 1 116 1 117 1 118 1 119 1 120 1 121 1 122 1 123 1 124 1 125 1 126 1 127 1 128 1 129 1 130 1 131 1 132 1 133 1 134 1 135 1 136 1 137 1 138 1 139 1 140 1 141 1 142 1 143 1 144 1 145 1 146 1 147 4
1 0 0.14999999999999999 0 0 -1 0 
7 0 0  3 150 148  0 0 0  0.017151379567487416 0 0  0.03730576213797783 0 0  0.057460144708468247 0 0  0.077614527278958706 0 0  0.097768909849449151 0 0  0.11792329241993962 0 0  0.13807767499043008 0 0  0.15823205756092054 0 0  0.178386440131411 0 0  0.19854082270190149 0 0  0.21869520527239195 0 0  0.23884958784288235 0 0  0.25900397041337281 0 0  0.27915835298386327 0 0  0.29931273555435367 0 0  0.31946711812484418 0 0  0.3396215006953347 0 0  0.3597758832658251 0 0  0.37993026583631562 0 0  0.40008464840680608 0 0  0.42023903097729653 0 0  0.44039341354778699 0 0  0.46054779611827745 0 0  0.48070217868876791 0 0  0.50085656125925837 0 0  0.52101094382974877 0 0  0.54116532640023918 0 0  0.56131970897072969 0 0  0.58147409154122021 0 0  0.60162847411171061 0 0  0.62178285668220101 0 0  0.64193723925269164 0 0  0.66209162182318193 0 0  0.68224600439367244 0 0  0.70240038696416296 0 0  0.72255476953465336 0 0  0.74270915210514388 0 0  0.76286353467563428 0 0  0.78301791724612479 0 0  0.80317229981661531 0 0  0.82332668238710571 0 0  0.84348106495759601 0 0  0.86363544752808663 0 0  0.88378983009857714 0 0  0.90394421266906755 0 0  0.92409859523955795 0 0  0.94425297781004847 0 0  0.96440736038053876 0 0  0.98456174295102938 0 0  1.0047161255215198 0 0  1.0248705080920104 0 0  1.0450248906625004 0 0  1.0651792732329901 0 0  1.0853336558034798 0 0  1.1054880383739696 0 0  1.1256424209444593 0 0  1.1457968035149488 0 0  1.1659511860854386 0 0  1.1861055686559281 0 0  1.2062599512264178 0 0  1.2264143337969076 0 0  1.2465687163673973 0 0  1.2667230989378868 0 0  1.2868774815083766 0 0  1.3070318640788665 0 0  1.327186246649356 0 0  1.3473406292198455 0 0  1.3674950117903355 0 0  1.3876493943608252 0 0  1.4078037769313148 0 0  1.4279581595018043 0 0  1.4481125420722942 0 0  1.468266924642784 0 0  1.4884213072132735 0 0  1.508575689783763 0 0  1.528730072354253 0 0  1.5488844549247429 0 0  1.5690388374952322 0 0  1.5891932200657219 0 0  1.6093476026362117 0 0  1.6295019852067014 0 0  1.6496563677771912 0 0  1.6698107503476807 0 0  1.6899651329181702 0 0  1.7101195154886604 0 0  1.7302738980591497 0 0  1.7504282806296392 0 0  1.7705826632001296 0 0  1.7907370457706189 0 0  1.8108914283411084 0 0  1.8310458109115979 0 0  1.8512001934820881 0 0  1.8713545760525776 0 0  1.8915089586230671 0 0  1.9116633411935564 0 0  1.9318177237640468 0 0  1.9519721063345361 0 0  1.9721264889050256 0 0  1.9922808714755158 0 0  2.0124352540460055 0 0  2.0325896366164953 0 0  2.052744019186985 0 0  2.0728984017574743 0 0  2.0930527843279645 0 0  2.1132071668984538 0 0  2.1333615494689435 0 0  2.1535159320394328 0 0  2.1736703146099225 0 0  2.1938246971804123 0 0  2.213979079750902 0 0  2.2341334623213918 0 0  2.2542878448918819 0 0  2.2744422274623712 0 0  2.294596610032861 0 0  2.3147509926033507 0 0  2.3349053751738404 0 0  2.3550597577443302 0 0  2.3752141403148195 0 0  2.3953685228853092 0 0  2.4155229054557994 0 0  2.4356772880262887 0 0  2.455831670596778 0 0  2.4759860531672682 0 0  2.4961404357377579 0 0  2.5162948183082476 0 0  2.5364492008787374 0 0  2.5566035834492267 0 0  2.5767579660197164 0 0  2.5969123485902061 0 0  2.6170667311606959 0 0  2.6372211137311856 0 0  2.6573754963016754 0 0  2.6775298788721646 0 0  2.6976842614426548 0 0  2.7178386440131441 0 0  2.7379930265836343 0 0  2.758147409154124 0 0  2.7783017917246133 0 0  2.7984561742951026 0 0  2.8186105568655933 0 0  2.8387649394360821 0 0  2.8589193220065718 0 0  2.8790737045770616 0 0  2.8992280871475513 0 0  2.9193824697180411 0 0  2.9395368522885312 0 0  2.9596912348590205 0 0  2.9798456174295107 0 0  3 0 0 
 0 4 1 1 2 1 3 1 4 1 5 1 6 1 7 1 8 1 9 1 10 1 11 1 12 1 13 1 14 1 15 1 16 1 17 1 18 1 19 1 20 1 21 1 22 1 23 1 24 1 25 1 26 1 27 1 28 1 29 1 30 1 31 1 32 1 33 1 34 1 35 1 36 1 37 1 38 1 39 1 40 1 41 1 42 1 43 1 44 1 45 1 46 1 47 1 48 1 49 1 50 1 51 1 52 1 53 1 54 1 55 1 56 1 57 1 58 1 59 1 60 1 61 1 62 1 63 1 64 1 65 1 66 1 67 1 68 1 69 1 70 1 71 1 72 1 73 1 74 1 75 1 76 1 77 1 78 1 79 1 80 1 81 1 82 1 83 1 84 1 85 1 86 1 87 1 88 1 89 1 90 1 91 1 92 1 93 1 94 1 95 1 96 1 97 1 98 1 99 1 100 1 101 1 102 1 103 1 104 1 105 1 106 1 107 1 108 1 109 1 110 1 111 1 112 1 113 1 114 1 115 1 116 1 117 1 118 1 119 1 120 1 121 1 122 1 123 1 124 1 125 1 126 1 127 1 128 1 129 1 130 1 131 1 132 1 133 1 134 1 135 1 136 1 137 1 138 1 139 1 140 1 141 1 142 1 143 1 144 1 145 1 146 1 147 4
1 3 0 0 0 1 0 
2 3 0 0 1 0 0 -0 1 0 0 -0 1 0.5
2 0 0 0 1 0 0 -0 1 0 0 -0 1 0.14999999999999999
1 0 0.14970400926424074 0.0094185779293970064 0 -0.99802672842827156 -0.062790519529313374 
1 3 0 0 0 0.99802672842827156 0.062790519529313374 
Polygon3D 0
PolygonOnTriangulations 0
Surfaces 5
1 1.5784396545287551 0.13607581008736924 0 0 0 1 1 0 -0 -0 1 0 
7 0 0 0 1 0 0 
8 0 147
7 0 0  3 150 148  3 0.5 0  2.9721096930215074 0.49986451604929272 0  2.9492519111206406 0.49956041205817087 0  2.9288341713280546 0.4991480356794934 0  2.9088773720375438 0.49861854089957186 0  2.8887381052265835 0.49794121526119572 0  2.868400991192829 0.4971345556481559 0  2.8478607579805333 0.49619014425774005 0  2.8271112737497557 0.49509259638175535 0  2.806145921035518 0.49385916044627726 0  2.7849578003677924 0.49246950098178827 0  2.7635397150875849 0.49092914993926468 0  2.7418841551712929 0.48923732939008996 0  2.7199821187388209 0.48737776265641319 0  2.6978259211152169 0.48536620912720385 0  2.6754067643652792 0.48317422653665099 0  2.6527138084172308 0.48082436156024227 0  2.6297379561495067 0.47828533480794611 0  2.6064682860426869 0.47557737090392171 0  2.5828923009357743 0.47267530719949702 0  2.558998190936888 0.46958762120534192 0  2.534772896577659 0.46630479398776087 0  2.5102018304034255 0.46281405050487634 0  2.4852696004240435 0.45912221937639081 0  2.4599608533934618 0.45521090897222766 0  2.434256708808415 0.45107482703179047 0  2.4081393547881582 0.44671295815811374 0  2.3815870262057426 0.44211524091548299 0  2.354577598879835 0.43726163224697889 0  2.3270866921455249 0.43215181185308743 0  2.2990871082169466 0.42677512881110458 0  2.2705510489746903 0.42111940979037898 0  2.2414443796590593 0.41517092210128997 0  2.2117329721719385 0.40891557821979557 0  2.1813770447280163 0.40233774118330845 0  2.1503332480008286 0.39542058162525306 0  2.1185506566958794 0.38814510592828211 0  2.0859760352631609 0.38049126143684914 0  2.052546104361332 0.37243607158143771 0  2.0181906592669803 0.36394926947354317 0  1.982826074896215 0.35499841074646576 0  1.9463602421445236 0.34555724766394746 0  1.9086814978439104 0.33557366938833372 0  1.8696616052949813 0.32501165463324272 0  1.8291462919933097 0.31380139518924755 0  1.786947964536967 0.30188455822308718 0  1.7428371199394628 0.28917562480304476 0  1.6965305986150863 0.27557161081687237 0  1.6476595683688526 0.26094181901899982 0  1.5957472084826305 0.24511650985023706 0  1.5401430571217618 0.22786466538710898 0  1.4799234837286692 0.20886396613892844 0  1.4137051264275002 0.18763267857868707 0  1.3392331780210904 0.16339235126300461 0  1.2523347268976468 0.13471076296098619 0  1.1433678944950507 0.098303430323069763 0  1.0684591002128112 0.073095786395086779 0  1.0600974442746054 0.070276524561749404 0  1.0548930334458322 0.068521722920193151 0  1.0508159434209281 0.067146495532150477 0  1.0474474087131838 0.066010268183878631 0  1.0444738443680512 0.065007266753310602 0  1.0417763936505846 0.064097400137195656 0  1.0392649634412991 0.063250183646497593 0  1.036847596918844 0.062434543917048821 0  1.0345026381497511 0.061643335170578344 0  1.0322218268871621 0.060873770330550553 0  1.0299981132907643 0.060123470721745113 0  1.0278546928534902 0.059400262697925206 0  1.0257432607294339 0.058687847799142871 0  1.0236536474530205 0.057982700675163833 0  1.0215718747192186 0.057280160038788691 0  1.0194970520138242 0.056579964844498037 0  1.0174274112823003 0.05588151842285749 0  1.015364454688279 0.055185327712485736 0  1.0133092070818885 0.054491738571914618 0  1.0112588863800813 0.05379981212517411 0  1.0092143184130553 0.053204266600802609 0  1.0071777191652684 0.052747055615324459 0  1.0051457366138097 0.052290881065600717 0  1.0031188086938438 0.051835841266883405 0  1.0011000897159323 0.051382644353304384 0  0.999085794996176 0.050930440673633962 0  0.99707620533871832 0.050479293267637719 0  0.99507475834354997 0.050029973867153008 0  0.99307743460966202 0.050021651258727991 0  0.99108456046798299 0.050036461563010615 0  0.98909947385179864 0.050051213993281135 0  0.98711833663190296 0.050065937073097685 0  0.98514173811472272 0.050080626422952641 0  0.9831725406328311 0.050095260771047909 0  0.98120360088095415 0.050109893203788933 0  0.97923407998871292 0.050130306843208343 0  0.97724584592701991 0.050162343714872347 0  0.97524686907731262 0.050194553687544705 0  0.97323387842946874 0.050226989467762106 0  0.97120133668245412 0.050259740279326712 0  0.96915680969307072 0.05029268421185179 0  0.96709838711985929 0.050325852047107621 0  0.9649908248789516 0.050359811681104823 0  0.96281047266231079 0.050411876717687057 0  0.96053720135479992 0.050467622122265819 0  0.95813735218413632 0.05052647148287872 0  0.95557437403204171 0.050589321109996699 0  0.95284306319185186 0.050656298609476715 0  0.9498856859625775 0.050728819733371275 0  0.94657738384740275 0.050835748960778256 0  0.94270873646925768 0.050962092276708539 0  0.93773758377088878 0.051124441504879561 0  0.93086267064840733 0.051378929420173428 0  0.92082679225136621 0.051785600313931965 0  0.90737309210558958 0.052423562913762323 0  0.89348487135386145 0.053172533004069426 0  0.87912177223268539 0.05404143134811238 0  0.8642287322142681 0.055040579273493456 0  0.84874183379807189 0.056181623390560598 0  0.83258644991418818 0.05747781316129269 0  0.81566482995513878 0.058945236983512089 0  0.79785883292208037 0.060609165056370262 0  0.7790114149226226 0.062500650236975958 0  0.7589171744010903 0.0646418755361967 0  0.73728717132383093 0.067081714354316785 0  0.71370756791273804 0.069902521192552594 0  0.68753234683414366 0.073195258970867746 0  0.65764287936551913 0.077142099129936914 0  0.62179050291345872 0.08209586673539121 0  0.57369150240196554 0.089026862804774773 0  0.48465008660009534 0.10230155996073662 0  0.41232639406115545 0.11301358062643538 0  0.36928457383011803 0.11915616512823225 0  0.33564588641442228 0.12376090412091492 0  0.30706535315250738 0.12749776424690878 0  0.28177754932407817 0.13064856486459336 0  0.25885535511176894 0.13336255698921423 0  0.23773633830674612 0.13572533139833406 0  0.21805415974049414 0.1377997558887418 0  0.19954764877688724 0.13963605278092062 0  0.18202904415170496 0.14126296629264326 0  0.16535337762032842 0.14270027364796201 0  0.14941489206113268 0.14396577455373194 0  0.13411963610701871 0.14508141217283912 0  0.11939547510986692 0.14605995277383188 0  0.10518235771996531 0.14691251541863529 0  0.091435519319639003 0.14764139187602693 0  0.078103797071452874 0.14825676971491844 0  0.064978363677179463 0.14877557581399339 0  0.051637422023137702 0.14921269208685151 0  0.037434607304858147 0.14957434161704417 0  0.020947573121133711 0.14985470049526498 0  0 0.14999999999999999 0 
 0 4 1 1 2 1 3 1 4 1 5 1 6 1 7 1 8 1 9 1 10 1 11 1 12 1 13 1 14 1 15 1 16 1 17 1 18 1 19 1 20 1 21 1 22 1 23 1 24 1 25 1 26 1 27 1 28 1 29 1 30 1 31 1 32 1 33 1 34 1 35 1 36 1 37 1 38 1 39 1 40 1 41 1 42 1 43 1 44 1 45 1 46 1 47 1 48 1 49 1 50 1 51 1 52 1 53 1 54 1 55 1 56 1 57 1 58 1 59 1 60 1 61 1 62 1 63 1 64 1 65 1 66 1 67 1 68 1 69 1 70 1 71 1 72 1 73 1 74 1 75 1 76 1 77 1 78 1 79 1 80 1 81 1 82 1 83 1 84 1 85 1 86 1 87 1 88 1 89 1 90 1 91 1 92 1 93 1 94 1 95 1 96 1 97 1 98 1 99 1 100 1 101 1 102 1 103 1 104 1 105 1 106 1 107 1 108 1 109 1 110 1 111 1 112 1 113 1 114 1 115 1 116 1 117 1 118 1 119 1 120 1 121 1 122 1 123 1 124 1 125 1 126 1 127 1 128 1 129 1 130 1 131 1 132 1 133 1 134 1 135 1 136 1 137 1 138 1 139 1 140 1 141 1 142 1 143 1 144 1 145 1 146 1 147 4
1 1.5784396545287551 0.13580729555972393 0.0085442708107580957 0 -0.062790519529313374 0.99802672842827156 1 0 0 0 0.99802672842827156 0.062790519529313374 
1 0 0 0 1 0 0 -0 1 0 0 -0 1 
1 3 0 0 1 0 0 0 -1 -0 0 -0 1 
Triangulations 0

TShapes 25
Ve
1e-07
3 0.5 0
0 0

0101101
*
Ve
1e-07
0 0.15 0
0 0

0101101
*
Ed
 1e-07 1 1 0
1  1 0 0 147
2  1 2 0 0 147
2  2 2 2 0 147
2  3 3 2 0 147
0

0101000
+25 0 -24 0 *
Ve
1e-07
0 0 0
0 0

0101101
*
Ed
 1e-07 1 1 0
1  2 0 0 0.15
2  4 4 0 0 0.15
0

0101000
+24 0 -22 0 *
Ve
1e-07
3 0 0
0 0

0101101
*
Ed
 1e-07 1 1 0
1  3 0 0 147
2  5 3 0 0 147
0

0101000
+22 0 -20 0 *
Ed
 1e-07 1 1 0
1  4 0 0 0.5
2  6 5 0 0 0.5
0

0101000
+20 0 -25 0 *
Wi

0101100
+23 0 +21 0 +19 0 +18 0 *
Fa
0  1e-07 1 0

0111000
+17 0 *
Ed
 1e-07 1 1 0
1  5 0 0 0.0628318530717959
2  7 2 0 0 0.0628318530717959
2  8 5 0 0 0.0628318530717959
0

0101000
+25 0 -25 1 *
Ed
 1e-07 1 1 0
1  6 0 0 0.0628318530717959
2  9 2 0 0 0.0628318530717959
2  10 4 0 0 0.0628318530717959
0

0101000
+24 0 -24 1 *
Wi

0101100
+15 0 +23 1 -14 0 -23 0 *
Fa
0  1e-07 2 0

0111000
+13 0 *
Ed
 1e-07 1 1 0
1  7 0 0 0.15
2  11 4 0 0 0.15
2  12 3 0 0 0.15
0

0101000
+24 1 -22 0 *
Wi

0101100
-11 0 -14 0 +21 0 *
Fa
0  1e-07 4 0

0111000
-10 0 *
Ed
 1e-07 1 1 0
1  8 0 0 0.5
2  13 5 0 0 0.5
2  14 3 0 0 0.5
0

0101000
+20 0 -25 1 *
Wi

0101100
-15 0 -18 0 +8 0 *
Fa
0  1e-07 5 0

0111000
+7 0 *
Wi

0101100
+23 1 +11 0 +19 0 +8 0 *
Fa
0  1e-07 3 0

0111000
+5 0 *
Sh

0101100
+16 0 +12 0 +9 0 +6 0 -4 0 *
So

0100000
-3 0 *
Co

1100000
+2 0 *

+1 0 