DBRep_DrawableShape

CASCADE Topology V1, (c) Matra-Datavision
Locations 2
1
              1               0               0               0 
              0 0.998026728428272 -0.0627905195293134               0 
              0 0.0627905195293134 0.998026728428272               0 
2  1 -1 0
Curve2ds 16
1 0 0 0 1 
1 0.062831853071795868 0 0 1 
1 0.62999996780364576 0 -1 0 
1 0.62875680677698897 0.039558025281841616 -0.99802672842827156 -0.062790519529313374 
1 0 0 0 1 
1 0.062831853071795868 0 0 1 
1 -0.52999996780364578 0 -1 0 
1 -0.52895413393416191 0.033278973328910277 -0.99802672842827156 0.062790519529313374 
1 0 0 1 0 
2 0 0 -1 0 0 1 0.62999996780364576
1 0 147 1 0 
2 0 0 1 0 -0 1 0.62999996780364576
2 0 0 1 0 -0 1 0.17999989977671318
1 0 0 1 0 
1 0 147 1 0 
2 0 0 -1 0 0 1 0.52999996780364578
Curves 8
7 0 0  3 150 148  3 0.62999996780364576 0  2.9798456174295107 0.62999996780364576 0  2.9596912348590205 0.62999996780364576 0  2.9395368522885312 0.62999996780364576 0  2.9193824697180411 0.62999996780364576 0  2.8992280871475513 0.62999996780364576 0  2.8790737045770616 0.62999996780364576 0  2.8589193220065718 0.62999996780364576 0  2.8387649394360821 0.62999996780364576 0  2.8186105568655933 0.62999996780364576 0  2.7984561742951026 0.62999996780364576 0  2.7783017917246133 0.62999996780364576 0  2.758147409154124 0.62999996780364576 0  2.7379930265836343 0.62999996780364576 0  2.7178386440131441 0.62999996780364576 0  2.6976842614426548 0.62999996780364576 0  2.6775298788721646 0.62999996780364576 0  2.6573754963016754 0.62999996780364576 0  2.6372211137311856 0.62999996780364576 0  2.6170667311606959 0.62999996780364576 0  2.5969123485902061 0.62999996780364576 0  2.5767579660197164 0.62999996780364576 0  2.5566035834492267 0.62999996780364576 0  2.5364492008787374 0.62999996780364576 0  2.5162948183082476 0.62999996780364576 0  2.4961404357377579 0.62999996780364576 0  2.4759860531672682 0.62999996780364576 0  2.455831670596778 0.62999996780364576 0  2.4356772880262887 0.62999996780364576 0  2.4155229054557994 0.62999996780364576 0  2.3953685228853092 0.62999996780364576 0  2.3752141403148195 0.62999996780364576 0  2.3550597577443302 0.62999996780364576 0  2.3349053751738404 0.62999996780364576 0  2.3147509926033507 0.62999996780364576 0  2.294596610032861 0.62999996780364576 0  2.2744422274623712 0.62999996780364576 0  2.2542878448918819 0.62999996780364576 0  2.2341334623213918 0.62999996780364576 0  2.213979079750902 0.62999996780364576 0  2.1938246971804123 0.62999996780364576 0  2.1736703146099225 0.62999996780364576 0  2.1535159320394328 0.62999996780364576 0  2.1333615494689435 0.62999996780364576 0  2.1132071668984538 0.62999996780364576 0  2.0930527843279645 0.62999996780364576 0  2.0728984017574743 0.62999996780364576 0  2.052744019186985 0.62999996780364576 0  2.0325896366164953 0.62999996780364576 0  2.0124352540460055 0.62999996780364576 0  1.9922808714755158 0.62999996780364576 0  1.9721264889050256 0.62999996780364576 0  1.9519721063345361 0.62999996780364576 0  1.9318177237640468 0.62999996780364576 0  1.9116633411935564 0.62999996780364576 0  1.8915089586230671 0.62999996780364576 0  1.8713545760525776 0.62999996780364576 0  1.8512001934820881 0.62999996780364576 0  1.8310458109115979 0.62999996780364576 0  1.8108914283411084 0.62999996780364576 0  1.7907370457706189 0.62999996780364576 0  1.7705826632001296 0.62999996780364576 0  1.7504282806296392 0.62999996780364576 0  1.7302738980591497 0.62999996780364576 0  1.7101195154886604 0.62999996780364576 0  1.6899651329181702 0.62999996780364576 0  1.6698107503476807 0.62999996780364576 0  1.6496563677771912 0.62999996780364576 0  1.6295019852067014 0.62999996780364576 0  1.6093476026362117 0.62999996780364576 0  1.5891932200657219 0.62999996780364576 0  1.5690388374952322 0.62999996780364576 0  1.5488844549247429 0.62999996780364576 0  1.528730072354253 0.62999996780364576 0  1.508575689783763 0.62999996780364576 0  1.4884213072132735 0.62999996780364576 0  1.468266924642784 0.62999996780364576 0  1.4481125420722942 0.62999996780364576 0  1.4279581595018043 0.62999996780364576 0  1.4078037769313148 0.62999996780364576 0  1.3876493943608252 0.62999996780364576 0  1.3674950117903355 0.62999996780364576 0  1.3473406292198455 0.62999996780364576 0  1.327186246649356 0.62999996780364576 0  1.3070318640788665 0.62999996780364576 0  1.2868774815083766 0.62999996780364576 0  1.2667230989378868 0.62999996780364576 0  1.2465687163673973 0.62999996780364576 0  1.2264143337969076 0.62999996780364576 0  1.2062599512264178 0.62999996780364576 0  1.1861055686559281 0.62999996780364576 0  1.1659511860854386 0.62999996780364576 0  1.1457968035149488 0.62999996780364576 0  1.1256424209444593 0.62999996780364576 0  1.1054880383739696 0.62999996780364576 0  1.0853336558034798 0.62999996780364576 0  1.0651792732329901 0.62999996780364576 0  1.0450248906625004 0.62999996780364576 0  1.0248705080920104 0.62999996780364576 0  1.0047161255215198 0.62999996780364576 0  0.98456174295102938 0.62999996780364576 0  0.96440736038053876 0.62999996780364576 0  0.94425297781004847 0.62999996780364576 0  0.92409859523955795 0.62999996780364576 0  0.90394421266906755 0.62999996780364576 0  0.88378983009857714 0.62999996780364576 0  0.86363544752808663 0.62999996780364576 0  0.84348106495759601 0.62999996780364576 0  0.82332668238710571 0.62999996780364576 0  0.80317229981661531 0.62999996780364576 0  0.78301791724612479 0.62999996780364576 0  0.76286353467563428 0.62999996780364576 0  0.74270915210514388 0.62999996780364576 0  0.72255476953465336 0.62999996780364576 0  0.70240038696416296 0.62999996780364576 0  0.68224600439367244 0.62999996780364576 0  0.66209162182318193 0.62999996780364576 0  0.64193723925269164 0.62999996780364576 0  0.62178285668220101 0.62999996780364576 0  0.60162847411171061 0.62999996780364576 0  0.58147409154122021 0.62999996780364576 0  0.56131970897072969 0.62999996780364576 0  0.54116532640023918 0.62999996780364576 0  0.52101094382974877 0.62999996780364576 0  0.50085656125925837 0.62999996780364576 0  0.48070217868876791 0.62999996780364576 0  0.46054779611827745 0.62999996780364576 0  0.44039341354778699 0.62999996780364576 0  0.42023903097729653 0.62999996780364576 0  0.40008464840680608 0.62999996780364576 0  0.37993026583631562 0.62999996780364576 0  0.3597758832658251 0.62999996780364576 0  0.3396215006953347 0.62999996780364576 0  0.31946711812484418 0.62999996780364576 0  0.29931273555435367 0.62999996780364576 0  0.27915835298386327 0.62999996780364576 0  0.25900397041337281 0.62999996780364576 0  0.23884958784288235 0.62999996780364576 0  0.21869520527239195 0.62999996780364576 0  0.19854082270190149 0.62999996780364576 0  0.178386440131411 0.62999996780364576 0  0.15823205756092054 0.62999996780364576 0  0.13807767499043008 0.62999996780364576 0  0.11792329241993962 0.62999996780364576 0  0.097768909849449151 0.62999996780364576 0  0.077614527278958706 0.62999996780364576 0  0.057460144708468247 0.62999996780364576 0  0.03730576213797783 0.62999996780364576 0  0.017151379567487416 0.62999996780364576 0  0 0.62999996780364576 0 
 0 4 1 1 2 1 3 1 4 1 5 1 6 1 7 1 8 1 9 1 10 1 11 1 12 1 13 1 14 1 15 1 16 1 17 1 18 1 19 1 20 1 21 1 22 1 23 1 24 1 25 1 26 1 27 1 28 1 29 1 30 1 31 1 32 1 33 1 34 1 35 1 36 1 37 1 38 1 39 1 40 1 41 1 42 1 43 1 44 1 45 1 46 1 47 1 48 1 49 1 50 1 51 1 52 1 53 1 54 1 55 1 56 1 57 1 58 1 59 1 60 1 61 1 62 1 63 1 64 1 65 1 66 1 67 1 68 1 69 1 70 1 71 1 72 1 73 1 74 1 75 1 76 1 77 1 78 1 79 1 80 1 81 1 82 1 83 1 84 1 85 1 86 1 87 1 88 1 89 1 90 1 91 1 92 1 93 1 94 1 95 1 96 1 97 1 98 1 99 1 100 1 101 1 102 1 103 1 104 1 105 1 106 1 107 1 108 1 109 1 110 1 111 1 112 1 113 1 114 1 115 1 116 1 117 1 118 1 119 1 120 1 121 1 122 1 123 1 124 1 125 1 126 1 127 1 128 1 129 1 130 1 131 1 132 1 133 1 134 1 135 1 136 1 137 1 138 1 139 1 140 1 141 1 142 1 143 1 144 1 145 1 146 1 147 4
1 0 0.62999996780364576 0 0 -1 0 
7 0 0  3 150 148  0 0.17999989977671318 0  0.017850341209569191 0.17989513552180864 0  0.034279805258731255 0.17964092972007742 0  0.048432719416893928 0.17930490111534475 0  0.061719842426900415 0.17889313715255029 0  0.074790596502423159 0.17839479128844438 0  0.088059103835712513 0.17779108859257836 0  0.10174545686758424 0.17707973328150131 0  0.11589744123719614 0.17625153489968853 0  0.1305610895063935 0.17529679758395827 0  0.14579752868145313 0.17420426392878025 0  0.16167799148180706 0.17296116399868625 0  0.1782957111876953 0.17155205071766977 0  0.19575756992168533 0.16995912894165682 0  0.21421154673666845 0.16814296055571051 0  0.2338422637109927 0.16608644377702891 0  0.25491250475266514 0.16375168903189408 0  0.27779380728604358 0.16105762960094544 0  0.30303988868256287 0.15793419411458612 0  0.33159746574102023 0.15421791671143831 0  0.36523496859109505 0.14962680595979019 0  0.40831756357873639 0.14349394934651893 0  0.4811162043340157 0.13272073068131129 0  0.56988359858169657 0.11948083474792023 0  0.61781965150061946 0.11255562377412312 0  0.65363378296460051 0.10759413534129306 0  0.6835259041028009 0.1036299841034934 0  0.70972439463902459 0.10031289522243549 0  0.7333353090921565 0.097479689970897967 0  0.75499970536509675 0.095007985370171813 0  0.77513799598878352 0.092849903954618243 0  0.79402805310189195 0.090940732354810788 0  0.81188235183725432 0.089248573661075054 0  0.82885622210727616 0.087749335733679448 0  0.84506126944542037 0.086429733698817318 0  0.86060096185183033 0.08526601366162373 0  0.87554918220969802 0.084243347463767576 0  0.88996923951874007 0.083350210835848482 0  0.90391572750772542 0.082580812441664445 0  0.91754722661367261 0.081923769599348217 0  0.92803575973405095 0.081485420342842119 0  0.93522050777070276 0.081200051892067748 0  0.94033582739461241 0.081033877638605312 0  0.94430409026097961 0.080904966218040511 0  0.94771156013613289 0.080794272497153027 0  0.95075209746174294 0.080703623522121445 0  0.95354272442999044 0.080635565593447797 0  0.95614343036386384 0.080572139467002882 0  0.95859330604209703 0.080512391795219587 0  0.96091868910875433 0.080455680254519171 0  0.96309748758760083 0.080402543624953568 0  0.96523528038964801 0.080353846692909028 0  0.96734175759228169 0.080320096044805098 0  0.96942103563752335 0.080286781190256729 0  0.97147664866650696 0.080253845504129992 0  0.9735153852673708 0.080221180217505308 0  0.97553133529157154 0.080188880024663525 0  0.97752371576523411 0.080156957470661205 0  0.97950804149593296 0.080125163972313979 0  0.98148856709772891 0.080101001692707036 0  0.98347333937734571 0.080078656500049639 0  0.98546087967242446 0.080056280144200659 0  0.9874527490709839 0.080033855049938568 0  0.98944880199972396 0.080011382856173499 0  0.99144770387357695 0.079988878588085316 0  0.99345104776452631 0.079966324310366904 0  0.99545996422019056 0.080047951883308335 0  0.99747298214739843 0.080457881181831836 0  0.9994925823876859 0.080869150897123057 0  1.0015186863729346 0.081281745029635671 0  1.003549322374669 0.081695262058220766 0  1.0055863698476091 0.08211008471347632 0  1.0076304339995343 0.082526336239411788 0  1.0096790495301775 0.082943514604328653 0  1.0117333067592136 0.083570111752632625 0  1.0137946097512813 0.0842449499768715 0  1.0158603732633265 0.084921248505292882 0  1.0179309988935969 0.085599138814855549 0  1.0200095588611879 0.086279626701838169 0  1.022092753784513 0.086961632000530295 0  1.0241834996593047 0.087646109362135363 0  1.0263174415712011 0.088356694126885182 0  1.028499909536293 0.089093111641212822 0  1.0307304133854114 0.089845737625437419 0  1.0330148851569712 0.090616573692895039 0  1.0353822133991943 0.091415367538953712 0  1.0378152530389191 0.092236334000961429 0  1.0403668179756884 0.093097278019085961 0  1.0431167452118459 0.094024908856103803 0  1.0461714010227354 0.095055333548582643 0  1.0496578670210999 0.096231420439091109 0  1.0537852964849799 0.097623723041854141 0  1.0591791131267743 0.099442694704604762 0  1.0681685004180088 0.1024738792414 0  1.1427819536517922 0.12758649936249203 0  1.2518328573376076 0.1640344385130621 0  1.3387572426345944 0.1927386743779422 0  1.4132331044229507 0.21699574283636835 0  1.4794427456336456 0.23824074832414727 0  1.5396461983013308 0.25725309612488567 0  1.5952302033055155 0.27451527529518244 0  1.6471171038018533 0.2903506804133274 0  1.6959597574561673 0.30498941356943987 0  1.7422371380855246 0.31860264575965697 0  1.7863148276517866 0.33132015070798104 0  1.8284793922036078 0.34324593198775949 0  1.8689590898870185 0.3544643271627288 0  1.9079418827322321 0.36503468298346642 0  1.9455821688535191 0.37502755556017814 0  1.9820090277375537 0.38447649656848615 0  2.0173315909050351 0.39343469477353271 0  2.05164592015965 0.40193183343779471 0  2.08503264225534 0.40999500636287312 0  2.1175637053798249 0.41765715167609868 0  2.1493005108591521 0.42494083605263738 0  2.1802996835092814 0.43186690871926792 0  2.2106087214891383 0.43845361816556983 0  2.240272911309261 0.44471825054618258 0  2.2693301204303955 0.45067607494742057 0  2.2978177523008423 0.45634187603953946 0  2.3257666161330972 0.46172875371877942 0  2.3532069092813943 0.46684937997230652 0  2.3801649414422075 0.47170926146465592 0  2.4066652418691832 0.47631847802981414 0  2.4327307075199496 0.4806925220566825 0  2.4583807619245626 0.48484110557718407 0  2.483636214873953 0.48875956328491821 0  2.5085128907576393 0.49246478805639521 0  2.5330285554850529 0.49596972675257289 0  2.5571981333196061 0.49926032003586829 0  2.5810357406488484 0.50236329088458265 0  2.6045547381536531 0.50527358802253064 0  2.6277677831261759 0.50799813471072819 0  2.6506852878052092 0.51054591185750819 0  2.6733195744676599 0.51291353565870779 0  2.6956800854658316 0.51511496107059773 0  2.7177773444626601 0.51714573893221283 0  2.7396188935960337 0.51901534902048707 0  2.7612146027005449 0.5207279039987146 0  2.7825723625417371 0.52227912890449035 0  2.8036997329621434 0.52368966357714031 0  2.8246039588008012 0.52493625435524993 0  2.8452919869509952 0.5260457570322209 0  2.8657704813689366 0.52701486441306189 0  2.8860458369565292 0.5278343907092482 0  2.9061230639825908 0.52852488697475197 0  2.9260186770340622 0.52908166091020381 0  2.9463819917202434 0.52950836226325193 0  2.9691856110225729 0.52983846797884782 0  3 0.52999996780364578 0 
 0 4 1 1 2 1 3 1 4 1 5 1 6 1 7 1 8 1 9 1 10 1 11 1 12 1 13 1 14 1 15 1 16 1 17 1 18 1 19 1 20 1 21 1 22 1 23 1 24 1 25 1 26 1 27 1 28 1 29 1 30 1 31 1 32 1 33 1 34 1 35 1 36 1 37 1 38 1 39 1 40 1 41 1 42 1 43 1 44 1 45 1 46 1 47 1 48 1 49 1 50 1 51 1 52 1 53 1 54 1 55 1 56 1 57 1 58 1 59 1 60 1 61 1 62 1 63 1 64 1 65 1 66 1 67 1 68 1 69 1 70 1 71 1 72 1 73 1 74 1 75 1 76 1 77 1 78 1 79 1 80 1 81 1 82 1 83 1 84 1 85 1 86 1 87 1 88 1 89 1 90 1 91 1 92 1 93 1 94 1 95 1 96 1 97 1 98 1 99 1 100 1 101 1 102 1 103 1 104 1 105 1 106 1 107 1 108 1 109 1 110 1 111 1 112 1 113 1 114 1 115 1 116 1 117 1 118 1 119 1 120 1 121 1 122 1 123 1 124 1 125 1 126 1 127 1 128 1 129 1 130 1 131 1 132 1 133 1 134 1 135 1 136 1 137 1 138 1 139 1 140 1 141 1 142 1 143 1 144 1 145 1 146 1 147 4
1 3 0.52999996780364578 0 0 1 0 
2 3 0 0 1 0 0 -0 1 0 0 -0 1 0.62999996780364576
2 0 0 0 1 0 0 -0 1 0 0 -0 1 0.62999996780364576
2 0 0 0 1 0 0 -0 1 0 0 -0 1 0.17999989977671318
2 3 0 0 1 0 0 -0 1 0 0 -0 1 0.52999996780364578
Polygon3D 0
PolygonOnTriangulations 0
Surfaces 5
1 1.4209162322358555 0.45336485660357995 0 0 0 1 1 0 -0 -0 1 0 
7 0 0 0 1 0 0 
8 0 147
7 0 0  3 150 148  3 0.62999996780364576 0  2.9798456174295107 0.62999996780364576 0  2.9596912348590205 0.62999996780364576 0  2.9395368522885312 0.62999996780364576 0  2.9193824697180411 0.62999996780364576 0  2.8992280871475513 0.62999996780364576 0  2.8790737045770616 0.62999996780364576 0  2.8589193220065718 0.62999996780364576 0  2.8387649394360821 0.62999996780364576 0  2.8186105568655933 0.62999996780364576 0  2.7984561742951026 0.62999996780364576 0  2.7783017917246133 0.62999996780364576 0  2.758147409154124 0.62999996780364576 0  2.7379930265836343 0.62999996780364576 0  2.7178386440131441 0.62999996780364576 0  2.6976842614426548 0.62999996780364576 0  2.6775298788721646 0.62999996780364576 0  2.6573754963016754 0.62999996780364576 0  2.6372211137311856 0.62999996780364576 0  2.6170667311606959 0.62999996780364576 0  2.5969123485902061 0.62999996780364576 0  2.5767579660197164 0.62999996780364576 0  2.5566035834492267 0.62999996780364576 0  2.5364492008787374 0.62999996780364576 0  2.5162948183082476 0.62999996780364576 0  2.4961404357377579 0.62999996780364576 0  2.4759860531672682 0.62999996780364576 0  2.455831670596778 0.62999996780364576 0  2.4356772880262887 0.62999996780364576 0  2.4155229054557994 0.62999996780364576 0  2.3953685228853092 0.62999996780364576 0  2.3752141403148195 0.62999996780364576 0  2.3550597577443302 0.62999996780364576 0  2.3349053751738404 0.62999996780364576 0  2.3147509926033507 0.62999996780364576 0  2.294596610032861 0.62999996780364576 0  2.2744422274623712 0.62999996780364576 0  2.2542878448918819 0.62999996780364576 0  2.2341334623213918 0.62999996780364576 0  2.213979079750902 0.62999996780364576 0  2.1938246971804123 0.62999996780364576 0  2.1736703146099225 0.62999996780364576 0  2.1535159320394328 0.62999996780364576 0  2.1333615494689435 0.62999996780364576 0  2.1132071668984538 0.62999996780364576 0  2.0930527843279645 0.62999996780364576 0  2.0728984017574743 0.62999996780364576 0  2.052744019186985 0.62999996780364576 0  2.0325896366164953 0.62999996780364576 0  2.0124352540460055 0.62999996780364576 0  1.9922808714755158 0.62999996780364576 0  1.9721264889050256 0.62999996780364576 0  1.9519721063345361 0.62999996780364576 0  1.9318177237640468 0.62999996780364576 0  1.9116633411935564 0.62999996780364576 0  1.8915089586230671 0.62999996780364576 0  1.8713545760525776 0.62999996780364576 0  1.8512001934820881 0.62999996780364576 0  1.8310458109115979 0.62999996780364576 0  1.8108914283411084 0.62999996780364576 0  1.7907370457706189 0.62999996780364576 0  1.7705826632001296 0.62999996780364576 0  1.7504282806296392 0.62999996780364576 0  1.7302738980591497 0.62999996780364576 0  1.7101195154886604 0.62999996780364576 0  1.6899651329181702 0.62999996780364576 0  1.6698107503476807 0.62999996780364576 0  1.6496563677771912 0.62999996780364576 0  1.6295019852067014 0.62999996780364576 0  1.6093476026362117 0.62999996780364576 0  1.5891932200657219 0.62999996780364576 0  1.5690388374952322 0.62999996780364576 0  1.5488844549247429 0.62999996780364576 0  1.528730072354253 0.62999996780364576 0  1.508575689783763 0.62999996780364576 0  1.4884213072132735 0.62999996780364576 0  1.468266924642784 0.62999996780364576 0  1.4481125420722942 0.62999996780364576 0  1.4279581595018043 0.62999996780364576 0  1.4078037769313148 0.62999996780364576 0  1.3876493943608252 0.62999996780364576 0  1.3674950117903355 0.62999996780364576 0  1.3473406292198455 0.62999996780364576 0  1.327186246649356 0.62999996780364576 0  1.3070318640788665 0.62999996780364576 0  1.2868774815083766 0.62999996780364576 0  1.2667230989378868 0.62999996780364576 0  1.2465687163673973 0.62999996780364576 0  1.2264143337969076 0.62999996780364576 0  1.2062599512264178 0.62999996780364576 0  1.1861055686559281 0.62999996780364576 0  1.1659511860854386 0.62999996780364576 0  1.1457968035149488 0.62999996780364576 0  1.1256424209444593 0.62999996780364576 0  1.1054880383739696 0.62999996780364576 0  1.0853336558034798 0.62999996780364576 0  1.0651792732329901 0.62999996780364576 0  1.0450248906625004 0.62999996780364576 0  1.0248705080920104 0.62999996780364576 0  1.0047161255215198 0.62999996780364576 0  0.98456174295102938 0.62999996780364576 0  0.96440736038053876 0.62999996780364576 0  0.94425297781004847 0.62999996780364576 0  0.92409859523955795 0.62999996780364576 0  0.90394421266906755 0.62999996780364576 0  0.88378983009857714 0.62999996780364576 0  0.86363544752808663 0.62999996780364576 0  0.84348106495759601 0.62999996780364576 0  0.82332668238710571 0.62999996780364576 0  0.80317229981661531 0.62999996780364576 0  0.78301791724612479 0.62999996780364576 0  0.76286353467563428 0.62999996780364576 0  0.74270915210514388 0.62999996780364576 0  0.72255476953465336 0.62999996780364576 0  0.70240038696416296 0.62999996780364576 0  0.68224600439367244 0.62999996780364576 0  0.66209162182318193 0.62999996780364576 0  0.64193723925269164 0.62999996780364576 0  0.62178285668220101 0.62999996780364576 0  0.60162847411171061 0.62999996780364576 0  0.58147409154122021 0.62999996780364576 0  0.56131970897072969 0.62999996780364576 0  0.54116532640023918 0.62999996780364576 0  0.52101094382974877 0.62999996780364576 0  0.50085656125925837 0.62999996780364576 0  0.48070217868876791 0.62999996780364576 0  0.46054779611827745 0.62999996780364576 0  0.44039341354778699 0.62999996780364576 0  0.42023903097729653 0.62999996780364576 0  0.40008464840680608 0.62999996780364576 0  0.37993026583631562 0.62999996780364576 0  0.3597758832658251 0.62999996780364576 0  0.3396215006953347 0.62999996780364576 0  0.31946711812484418 0.62999996780364576 0  0.29931273555435367 0.62999996780364576 0  0.27915835298386327 0.62999996780364576 0  0.25900397041337281 0.62999996780364576 0  0.23884958784288235 0.62999996780364576 0  0.21869520527239195 0.62999996780364576 0  0.19854082270190149 0.62999996780364576 0  0.178386440131411 0.62999996780364576 0  0.15823205756092054 0.62999996780364576 0  0.13807767499043008 0.62999996780364576 0  0.11792329241993962 0.62999996780364576 0  0.097768909849449151 0.62999996780364576 0  0.077614527278958706 0.62999996780364576 0  0.057460144708468247 0.62999996780364576 0  0.03730576213797783 0.62999996780364576 0  0.017151379567487416 0.62999996780364576 0  0 0.62999996780364576 0 
 0 4 1 1 2 1 3 1 4 1 5 1 6 1 7 1 8 1 9 1 10 1 11 1 12 1 13 1 14 1 15 1 16 1 17 1 18 1 19 1 20 1 21 1 22 1 23 1 24 1 25 1 26 1 27 1 28 1 29 1 30 1 31 1 32 1 33 1 34 1 35 1 36 1 37 1 38 1 39 1 40 1 41 1 42 1 43 1 44 1 45 1 46 1 47 1 48 1 49 1 50 1 51 1 52 1 53 1 54 1 55 1 56 1 57 1 58 1 59 1 60 1 61 1 62 1 63 1 64 1 65 1 66 1 67 1 68 1 69 1 70 1 71 1 72 1 73 1 74 1 75 1 76 1 77 1 78 1 79 1 80 1 81 1 82 1 83 1 84 1 85 1 86 1 87 1 88 1 89 1 90 1 91 1 92 1 93 1 94 1 95 1 96 1 97 1 98 1 99 1 100 1 101 1 102 1 103 1 104 1 105 1 106 1 107 1 108 1 109 1 110 1 111 1 112 1 113 1 114 1 115 1 116 1 117 1 118 1 119 1 120 1 121 1 122 1 123 1 124 1 125 1 126 1 127 1 128 1 129 1 130 1 131 1 132 1 133 1 134 1 135 1 136 1 137 1 138 1 139 1 140 1 141 1 142 1 143 1 144 1 145 1 146 1 147 4
1 0 0 0 1 0 0 -0 1 0 0 -0 1 
7 0 0 0 1 0 0 
8 0 147
7 0 0  3 150 148  0 0.17999989977671318 0  0.017850341209569191 0.17989513552180864 0  0.034279805258731255 0.17964092972007742 0  0.048432719416893928 0.17930490111534475 0  0.061719842426900415 0.17889313715255029 0  0.074790596502423159 0.17839479128844438 0  0.088059103835712513 0.17779108859257836 0  0.10174545686758424 0.17707973328150131 0  0.11589744123719614 0.17625153489968853 0  0.1305610895063935 0.17529679758395827 0  0.14579752868145313 0.17420426392878025 0  0.16167799148180706 0.17296116399868625 0  0.1782957111876953 0.17155205071766977 0  0.19575756992168533 0.16995912894165682 0  0.21421154673666845 0.16814296055571051 0  0.2338422637109927 0.16608644377702891 0  0.25491250475266514 0.16375168903189408 0  0.27779380728604358 0.16105762960094544 0  0.30303988868256287 0.15793419411458612 0  0.33159746574102023 0.15421791671143831 0  0.36523496859109505 0.14962680595979019 0  0.40831756357873639 0.14349394934651893 0  0.4811162043340157 0.13272073068131129 0  0.56988359858169657 0.11948083474792023 0  0.61781965150061946 0.11255562377412312 0  0.65363378296460051 0.10759413534129306 0  0.6835259041028009 0.1036299841034934 0  0.70972439463902459 0.10031289522243549 0  0.7333353090921565 0.097479689970897967 0  0.75499970536509675 0.095007985370171813 0  0.77513799598878352 0.092849903954618243 0  0.79402805310189195 0.090940732354810788 0  0.81188235183725432 0.089248573661075054 0  0.82885622210727616 0.087749335733679448 0  0.84506126944542037 0.086429733698817318 0  0.86060096185183033 0.08526601366162373 0  0.87554918220969802 0.084243347463767576 0  0.88996923951874007 0.083350210835848482 0  0.90391572750772542 0.082580812441664445 0  0.91754722661367261 0.081923769599348217 0  0.92803575973405095 0.081485420342842119 0  0.93522050777070276 0.081200051892067748 0  0.94033582739461241 0.081033877638605312 0  0.94430409026097961 0.080904966218040511 0  0.94771156013613289 0.080794272497153027 0  0.95075209746174294 0.080703623522121445 0  0.95354272442999044 0.080635565593447797 0  0.95614343036386384 0.080572139467002882 0  0.95859330604209703 0.080512391795219587 0  0.96091868910875433 0.080455680254519171 0  0.96309748758760083 0.080402543624953568 0  0.96523528038964801 0.080353846692909028 0  0.96734175759228169 0.080320096044805098 0  0.96942103563752335 0.080286781190256729 0  0.97147664866650696 0.080253845504129992 0  0.9735153852673708 0.080221180217505308 0  0.97553133529157154 0.080188880024663525 0  0.97752371576523411 0.080156957470661205 0  0.97950804149593296 0.080125163972313979 0  0.98148856709772891 0.080101001692707036 0  0.98347333937734571 0.080078656500049639 0  0.98546087967242446 0.080056280144200659 0  0.9874527490709839 0.080033855049938568 0  0.98944880199972396 0.080011382856173499 0  0.99144770387357695 0.079988878588085316 0  0.99345104776452631 0.079966324310366904 0  0.99545996422019056 0.080047951883308335 0  0.99747298214739843 0.080457881181831836 0  0.9994925823876859 0.080869150897123057 0  1.0015186863729346 0.081281745029635671 0  1.003549322374669 0.081695262058220766 0  1.0055863698476091 0.08211008471347632 0  1.0076304339995343 0.082526336239411788 0  1.0096790495301775 0.082943514604328653 0  1.0117333067592136 0.083570111752632625 0  1.0137946097512813 0.0842449499768715 0  1.0158603732633265 0.084921248505292882 0  1.0179309988935969 0.085599138814855549 0  1.0200095588611879 0.086279626701838169 0  1.022092753784513 0.086961632000530295 0  1.0241834996593047 0.087646109362135363 0  1.0263174415712011 0.088356694126885182 0  1.028499909536293 0.089093111641212822 0  1.0307304133854114 0.089845737625437419 0  1.0330148851569712 0.090616573692895039 0  1.0353822133991943 0.091415367538953712 0  1.0378152530389191 0.092236334000961429 0  1.0403668179756884 0.093097278019085961 0  1.0431167452118459 0.094024908856103803 0  1.0461714010227354 0.095055333548582643 0  1.0496578670210999 0.096231420439091109 0  1.0537852964849799 0.097623723041854141 0  1.0591791131267743 0.099442694704604762 0  1.0681685004180088 0.1024738792414 0  1.1427819536517922 0.12758649936249203 0  1.2518328573376076 0.1640344385130621 0  1.3387572426345944 0.1927386743779422 0  1.4132331044229507 0.21699574283636835 0  1.4794427456336456 0.23824074832414727 0  1.5396461983013308 0.25725309612488567 0  1.5952302033055155 0.27451527529518244 0  1.6471171038018533 0.2903506804133274 0  1.6959597574561673 0.30498941356943987 0  1.7422371380855246 0.31860264575965697 0  1.7863148276517866 0.33132015070798104 0  1.8284793922036078 0.34324593198775949 0  1.8689590898870185 0.3544643271627288 0  1.9079418827322321 0.36503468298346642 0  1.9455821688535191 0.37502755556017814 0  1.9820090277375537 0.38447649656848615 0  2.0173315909050351 0.39343469477353271 0  2.05164592015965 0.40193183343779471 0  2.08503264225534 0.40999500636287312 0  2.1175637053798249 0.41765715167609868 0  2.1493005108591521 0.42494083605263738 0  2.1802996835092814 0.43186690871926792 0  2.2106087214891383 0.43845361816556983 0  2.240272911309261 0.44471825054618258 0  2.2693301204303955 0.45067607494742057 0  2.2978177523008423 0.45634187603953946 0  2.3257666161330972 0.46172875371877942 0  2.3532069092813943 0.46684937997230652 0  2.3801649414422075 0.47170926146465592 0  2.4066652418691832 0.47631847802981414 0  2.4327307075199496 0.4806925220566825 0  2.4583807619245626 0.48484110557718407 0  2.483636214873953 0.48875956328491821 0  2.5085128907576393 0.49246478805639521 0  2.5330285554850529 0.49596972675257289 0  2.5571981333196061 0.49926032003586829 0  2.5810357406488484 0.50236329088458265 0  2.6045547381536531 0.50527358802253064 0  2.6277677831261759 0.50799813471072819 0  2.6506852878052092 0.51054591185750819 0  2.6733195744676599 0.51291353565870779 0  2.6956800854658316 0.51511496107059773 0  2.7177773444626601 0.51714573893221283 0  2.7396188935960337 0.51901534902048707 0  2.7612146027005449 0.5207279039987146 0  2.7825723625417371 0.52227912890449035 0  2.8036997329621434 0.52368966357714031 0  2.8246039588008012 0.52493625435524993 0  2.8452919869509952 0.5260457570322209 0  2.8657704813689366 0.52701486441306189 0  2.8860458369565292 0.5278343907092482 0  2.9061230639825908 0.52852488697475197 0  2.9260186770340622 0.52908166091020381 0  2.9463819917202434 0.52950836226325193 0  2.9691856110225729 0.52983846797884782 0  3 0.52999996780364578 0 
 0 4 1 1 2 1 3 1 4 1 5 1 6 1 7 1 8 1 9 1 10 1 11 1 12 1 13 1 14 1 15 1 16 1 17 1 18 1 19 1 20 1 21 1 22 1 23 1 24 1 25 1 26 1 27 1 28 1 29 1 30 1 31 1 32 1 33 1 34 1 35 1 36 1 37 1 38 1 39 1 40 1 41 1 42 1 43 1 44 1 45 1 46 1 47 1 48 1 49 1 50 1 51 1 52 1 53 1 54 1 55 1 56 1 57 1 58 1 59 1 60 1 61 1 62 1 63 1 64 1 65 1 66 1 67 1 68 1 69 1 70 1 71 1 72 1 73 1 74 1 75 1 76 1 77 1 78 1 79 1 80 1 81 1 82 1 83 1 84 1 85 1 86 1 87 1 88 1 89 1 90 1 91 1 92 1 93 1 94 1 95 1 96 1 97 1 98 1 99 1 100 1 101 1 102 1 103 1 104 1 105 1 106 1 107 1 108 1 109 1 110 1 111 1 112 1 113 1 114 1 115 1 116 1 117 1 118 1 119 1 120 1 121 1 122 1 123 1 124 1 125 1 126 1 127 1 128 1 129 1 130 1 131 1 132 1 133 1 134 1 135 1 136 1 137 1 138 1 139 1 140 1 141 1 142 1 143 1 144 1 145 1 146 1 147 4
1 3 0 0 1 0 0 0 -1 -0 0 -0 1 
Triangulations 0

TShapes 25
Ve
1e-07
3 0.629999967803646 0
0 0

0101101
*
Ve
1e-07
0 0.629999967803646 0
0 0

0101101
*
Ed
 1e-07 1 1 0
1  1 0 0 147
2  1 2 0 0 147
2  2 2 2 0 147
0

0101000
+25 0 -24 0 *
Ve
1e-07
0 0.179999899776713 0
0 0

0101101
*
Ed
 1e-07 1 1 0
1  2 0 0 0.450000068026933
2  3 3 0 0 0.450000068026933
2  4 3 2 0 0.450000068026933
0

0101000
+24 0 -22 0 *
Ve
1e-07
3 0.529999967803646 0
0 0

0101101
*
Ed
 1e-07 1 1 0
1  3 0 0 147
2  5 4 0 0 147
2  6 4 2 0 147
0

0101000
+22 0 -20 0 *
Ed
 1e-07 1 1 0
1  4 0 0 0.1
2  7 5 0 0 0.1
2  8 5 2 0 0.1
0

0101000
+20 0 -25 0 *
Wi

0101100
+23 0 +21 0 +19 0 +18 0 *
Fa
0  1e-07 1 0

0111000
+17 0 *
Ed
 1e-07 1 1 0
1  5 0 0 0.0628318530717959
2  9 2 0 0 0.0628318530717959
2  10 5 0 0 0.0628318530717959
0

0101000
+25 0 -25 1 *
Ed
 1e-07 1 1 0
1  6 0 0 0.0628318530717959
2  11 2 0 0 0.0628318530717959
2  12 3 0 0 0.0628318530717959
0

0101000
+24 0 -24 1 *
Wi

0101100
+15 0 +23 1 -14 0 -23 0 *
Fa
0  1e-07 2 0

0111000
+13 0 *
Ed
 1e-07 1 1 0
1  7 0 0 0.0628318530717959
2  13 3 0 0 0.0628318530717959
2  14 4 0 0 0.0628318530717959
0

0101000
+22 0 -22 1 *
Wi

0101100
+14 0 +21 1 -11 0 -21 0 *
Fa
0  1e-07 3 0

0111000
+10 0 *
Ed
 1e-07 1 1 0
1  8 0 0 0.0628318530717959
2  15 4 0 0 0.0628318530717959
2  16 5 0 0 0.0628318530717959
0

0101000
+20 0 -20 1 *
Wi

0101100
+11 0 +19 1 -8 0 -19 0 *
Fa
0  1e-07 4 0

0111000
+7 0 *
Wi

0101100
+8 0 +18 1 -15 0 -18 0 *
Fa
0  1e-07 5 0

0111000
+5 0 *
Sh

0101100
+16 0 +12 0 +9 0 +6 0 +4 0 -16 1 *
So

0100000
-3 0 *
Co

1100000
+2 0 *

+1 0 