DBRep_DrawableShape

CASCADE Topology V1, (c) Matra-Datavision
Locations 1
1
              1               0               0             0.1 
              0               1               0               0 
              0               0               1               0 
Curve2ds 0
Curves 16
1 0 0 0 0 1 0 
1 0 0.002 0 0 0 1 
1 0 0.002 0.0060000000000000001 0 -1 0 
1 0 0 0.0060000000000000001 0 0 -1 
1 0 0 0.0050000000000000001 0 1 0 
1 0 0.001 0.0050000000000000001 0 0 -1 
1 0 0.001 0.001 0 -1 0 
1 0 0 0.001 0 0 -1 
1 0 0 0 1 0 0 
1 0 0.002 0 1 0 0 
1 0 0.002 0.0060000000000000001 1 0 0 
1 0 0 0.0060000000000000001 1 0 0 
1 0 0 0.0050000000000000001 1 0 0 
1 0 0.001 0.0050000000000000001 1 0 0 
1 0 0.001 0.001 1 0 0 
1 0 0 0.001 1 0 0 
Polygon3D 0
PolygonOnTriangulations 0
Surfaces 9
1 0 0.0011666666666666663 0.0029999999999999988 1 0 0 -0 0 1 0 -1 0 
1 0 0 0 0 0 1 0 1 0 -1 0 0 
1 0 0.002 0 0 -1 0 0 0 1 -1 0 0 
1 0 0.002 0.0060000000000000001 0 0 -1 0 -1 0 -1 -0 -0 
1 0 0 0.0060000000000000001 -0 1 0 0 0 -1 -1 0 -0 
1 0 0 0.0050000000000000001 0 0 1 0 1 0 -1 0 0 
1 0 0.001 0.0050000000000000001 -0 1 0 0 0 -1 -1 0 -0 
1 0 0.001 0.001 0 0 -1 0 -1 0 -1 -0 -0 
1 0 0 0.001 -0 1 0 0 0 -1 -1 0 -0 
Triangulations 0

TShapes 45
Ve
1e-07
0 0 0
0 0

0101101
*
Ve
1e-07
0 0.002 0
0 0

0101101
*
Ed
 1e-07 1 1 0
1  1 0 0 0.002
0

0101000
+45 0 -44 0 *
Ve
1e-07
0 0.002 0.006
0 0

0101101
*
Ed
 1e-07 1 1 0
1  2 0 0 0.006
0

0101000
+44 0 -42 0 *
Ve
1e-07
0 0 0.006
0 0

0101101
*
Ed
 1e-07 1 1 0
1  3 0 0 0.002
0

0101000
+42 0 -40 0 *
Ve
1e-07
0 0 0.005
0 0

0101101
*
Ed
 1e-07 1 1 0
1  4 0 0 0.001
0

0101000
+40 0 -38 0 *
Ve
1e-07
0 0.001 0.005
0 0

0101101
*
Ed
 1e-07 1 1 0
1  5 0 0 0.001
0

0101000
+38 0 -36 0 *
Ve
1e-07
0 0.001 0.001
0 0

0101101
*
Ed
 1e-07 1 1 0
1  6 0 0 0.004
0

0101000
+36 0 -34 0 *
Ve
1e-07
0 0 0.001
0 0

0101101
*
Ed
 1e-07 1 1 0
1  7 0 0 0.001
0

0101000
+34 0 -32 0 *
Ed
 1e-07 1 1 0
1  8 0 0 0.001
0

0101000
+32 0 -45 0 *
Wi

0101100
+43 0 +41 0 +39 0 +37 0 +35 0 +33 0 +31 0 +30 0 *
Fa
0  1e-07 1 0

0111000
+29 0 *
Ed
 1e-07 1 1 0
1  9 0 0 0.1
0

0101000
+45 0 -45 1 *
Ed
 1e-07 1 1 0
1  10 0 0 0.1
0

0101000
+44 0 -44 1 *
Wi

0101100
+27 0 +43 1 -26 0 -43 0 *
Fa
0  1e-07 2 0

0111000
+25 0 *
Ed
 1e-07 1 1 0
1  11 0 0 0.1
0

0101000
+42 0 -42 1 *
Wi

0101100
+26 0 +41 1 -23 0 -41 0 *
Fa
0  1e-07 3 0

0111000
+22 0 *
Ed
 1e-07 1 1 0
1  12 0 0 0.1
0

0101000
+40 0 -40 1 *
Wi

0101100
+23 0 +39 1 -20 0 -39 0 *
Fa
0  1e-07 4 0

0111000
+19 0 *
Ed
 1e-07 1 1 0
1  13 0 0 0.1
0

0101000
+38 0 -38 1 *
Wi

0101100
+20 0 +37 1 -17 0 -37 0 *
Fa
0  1e-07 5 0

0111000
+16 0 *
Ed
 1e-07 1 1 0
1  14 0 0 0.1
0

0101000
+36 0 -36 1 *
Wi

0101100
+17 0 +35 1 -14 0 -35 0 *
Fa
0  1e-07 6 0

0111000
+13 0 *
Ed
 1e-07 1 1 0
1  15 0 0 0.1
0

0101000
+34 0 -34 1 *
Wi

0101100
+14 0 +33 1 -11 0 -33 0 *
Fa
0  1e-07 7 0

0111000
+10 0 *
Ed
 1e-07 1 1 0
1  16 0 0 0.1
0

0101000
+32 0 -32 1 *
Wi

0101100
+11 0 +31 1 -8 0 -31 0 *
Fa
0  1e-07 8 0

0111000
+7 0 *
Wi

0101100
+8 0 +30 1 -27 0 -30 0 *
Fa
0  1e-07 9 0

0111000
+5 0 *
Sh

0101100
+28 0 +24 0 +21 0 +18 0 +15 0 +12 0 +9 0 +6 0 +4 0 -28 1 
*
So

0100000
-3 0 *
Co

1100000
+2 0 *

+1 0 